/* XPM */
static const char * skicon_xpm[] = {
"24 24 155 2",
"   c None",
".  c #E9BB00",
"+  c #000000",
"@  c #F8C700",
"#  c #999999",
"$  c #9C8F59",
"%  c #F7C600",
"&  c #F6C500",
"*  c #F5C500",
"=  c #2C2C2C",
"-  c #6B6B6B",
";  c #DADADA",
">  c #F8E07A",
",  c #B2A15C",
"'  c #F1F1F1",
")  c #E9E9E9",
"!  c #DEDEDE",
"~  c #D3D3D3",
"{  c #C7C7C7",
"]  c #ABABAB",
"^  c #373737",
"/  c #3F3F3F",
"(  c #282828",
"_  c #383838",
":  c #C1C1BF",
"<  c #F2F2F2",
"[  c #E8E8E8",
"}  c #DDDDDD",
"|  c #D2D2D2",
"1  c #C6C6C6",
"2  c #BBBBBB",
"3  c #AFAFAF",
"4  c #A4A4A4",
"5  c #858585",
"6  c #0C0C0C",
"7  c #090909",
"8  c #1C1C1C",
"9  c #E7E7E7",
"0  c #DCDCDC",
"a  c #D0D0D0",
"b  c #C5C5C5",
"c  c #BABABA",
"d  c #AEAEAE",
"e  c #A3A3A3",
"f  c #979797",
"g  c #8C8C8C",
"h  c #808080",
"i  c #212121",
"j  c #DBDBDB",
"k  c #CFCFCF",
"l  c #C4C4C4",
"m  c #B9B9B9",
"n  c #ADADAD",
"o  c #A2A2A2",
"p  c #969696",
"q  c #8B8B8B",
"r  c #757575",
"s  c #696969",
"t  c #1B1B1B",
"u  c #CECECE",
"v  c #C3C3C3",
"w  c #B7B7B7",
"x  c #ACACAC",
"y  c #A0A0A0",
"z  c #959595",
"A  c #8A8A8A",
"B  c #7F7F7F",
"C  c #747474",
"D  c #686868",
"E  c #5D5D5D",
"F  c #4D4D4D",
"G  c #070707",
"H  c #B6B6B6",
"I  c #9F9F9F",
"J  c #949494",
"K  c #898989",
"L  c #7E7E7E",
"M  c #727272",
"N  c #676767",
"O  c #5C5C5C",
"P  c #505050",
"Q  c #454545",
"R  c #252525",
"S  c #010101",
"T  c #3B3B3B",
"U  c #A9A9A9",
"V  c #9E9E9E",
"W  c #939393",
"X  c #888888",
"Y  c #7D7D7D",
"Z  c #717171",
"`  c #666666",
" . c #5B5B5B",
".. c #4F4F4F",
"+. c #444444",
"@. c #050505",
"#. c #272727",
"$. c #919191",
"%. c #868686",
"&. c #7B7B7B",
"*. c #707070",
"=. c #656565",
"-. c #595959",
";. c #4E4E4E",
">. c #434343",
",. c #1E1E1E",
"'. c #060606",
"). c #080808",
"!. c #6A6A6A",
"~. c #6F6F6F",
"{. c #646464",
"]. c #585858",
"^. c #424242",
"/. c #363636",
"(. c #2B2B2B",
"_. c #1F1F1F",
":. c #121212",
"<. c #040404",
"[. c #020202",
"}. c #1A1A1A",
"|. c #4C4C4C",
"1. c #404040",
"2. c #353535",
"3. c #2A2A2A",
"4. c #131313",
"5. c #030303",
"6. c #151515",
"7. c #181818",
"8. c #0B0B0B",
"9. c #202020",
"0. c #111111",
"a. c #0F0F0F",
"b. c #171717",
"c. c #2E2E2E",
"d. c #0D0D0D",
"e. c #1D1D1D",
"f. c #2D2D2D",
"g. c #3C3C3C",
"h. c #232323",
"i. c #333333",
"j. c #494949",
"k. c #242424",
"l. c #0A0A0A",
"m. c #191919",
"n. c #292929",
"o. c #313131",
"p. c #393939",
"q. c #414141",
"r. c #484848",
"s. c #2F2F2F",
"t. c #474747",
"u. c #262626",
"v. c #3D3D3D",
"w. c #4B4B4B",
"x. c #101010",
"                                          . .   ",
"                                  + + + . . @   ",
"                                + # $ % & * .   ",
"                + + + + + =   + - ; > , . .     ",
"            + + ' ) ! ~ { ] ^ / ( _ : ; +       ",
"          + < [ } | 1 2 3 4 5 6 + + 7 8 +       ",
"      + + 9 0 a b c d e f g h i + + + + +       ",
"      + j k l m n o p q h r s t + + + +         ",
"    + u v w x y z A B C D E F G + + + +         ",
"    + H ] I J K L M N O P Q R S S + + + +       ",
"  T U V W X Y Z `  ...+._ ( @.S S S S + +       ",
"  #.$.%.&.*.=.-.;.>.^ = ,.'.S S S S S + +       ",
"  ).!.~.{.].F ^./.(._.:.<.S S S S S [.@.+       ",
"  + }.;.|.1.2.3.,.:.G S S S S S [.@.6 4.5.      ",
"  + + @.6.7.4.8.<.S S S S S S <.8.:.}.9.@.      ",
"  + + + + S S S S S S S S 5.7 0.7.9.( 3.5.      ",
"  + + + + S S S S S S [.G a.b._.#.c./.R +       ",
"    + + + S S S S [.'.d.6.e.R f.2.g.1.d.        ",
"    + + + S S S @.8.4.t h.(.i.T ^.j.k.+         ",
"      + + S <.l.0.m.i n.o.p.q.r.;.= [.          ",
"        + + 7 b._.#.s.^ / t.;.|.i [.            ",
"          + S a.u.2.v.Q w.+.(.l.+               ",
"              + [.l.x.0.l.5.+                   ",
"                                                "};
